<svg width="273" height="27" viewBox="0 0 273 27" fill="none" xmlns="http://www.w3.org/2000/svg">
<path d="M0.656006 26V3.59998H11.6C14.416 3.59998 16.528 4.13331 17.936 5.19998C19.3653 6.26665 20.08 7.67465 20.08 9.42398C20.08 10.5973 19.792 11.6213 19.216 12.496C18.64 13.3493 17.8507 14.0106 16.848 14.48C15.8453 14.9493 14.6933 15.184 13.392 15.184L14 13.872C15.408 13.872 16.656 14.1066 17.744 14.576C18.832 15.024 19.6747 15.696 20.272 16.592C20.8907 17.488 21.2 18.5866 21.2 19.888C21.2 21.808 20.4427 23.312 18.928 24.4C17.4133 25.4666 15.184 26 12.24 26H0.656006ZM5.80801 22.096H11.856C13.2 22.096 14.2133 21.8826 14.896 21.456C15.6 21.008 15.952 20.304 15.952 19.344C15.952 18.4053 15.6 17.712 14.896 17.264C14.2133 16.7946 13.2 16.56 11.856 16.56H5.42401V12.784H10.96C12.2187 12.784 13.1787 12.5706 13.84 12.144C14.5227 11.696 14.864 11.024 14.864 10.128C14.864 9.25331 14.5227 8.60265 13.84 8.17598C13.1787 7.72798 12.2187 7.50398 10.96 7.50398H5.80801V22.096Z" fill="white"/>
<path d="M33.3168 26.256C31.3541 26.256 29.6261 25.872 28.1328 25.104C26.6608 24.336 25.5194 23.2906 24.7088 21.968C23.8981 20.624 23.4928 19.0986 23.4928 17.392C23.4928 15.664 23.8874 14.1386 24.6768 12.816C25.4874 11.472 26.5861 10.4266 27.9728 9.67998C29.3594 8.91198 30.9274 8.52798 32.6768 8.52798C34.3621 8.52798 35.8768 8.89065 37.2208 9.61598C38.5861 10.32 39.6634 11.344 40.4528 12.688C41.2421 14.0106 41.6368 15.6 41.6368 17.456C41.6368 17.648 41.6261 17.872 41.6048 18.128C41.5834 18.3626 41.5621 18.5866 41.5408 18.8H27.5568V15.888H38.9168L36.9968 16.752C36.9968 15.856 36.8154 15.0773 36.4528 14.416C36.0901 13.7546 35.5888 13.2426 34.9488 12.88C34.3088 12.496 33.5621 12.304 32.7088 12.304C31.8554 12.304 31.0981 12.496 30.4368 12.88C29.7968 13.2426 29.2954 13.7653 28.9328 14.448C28.5701 15.1093 28.3888 15.8986 28.3888 16.816V17.584C28.3888 18.5226 28.5914 19.3546 28.9968 20.08C29.4234 20.784 30.0101 21.328 30.7568 21.712C31.5248 22.0746 32.4208 22.256 33.4448 22.256C34.3621 22.256 35.1621 22.1173 35.8448 21.84C36.5488 21.5626 37.1888 21.1466 37.7648 20.592L40.4208 23.472C39.6314 24.368 38.6394 25.0613 37.4448 25.552C36.2501 26.0213 34.8741 26.256 33.3168 26.256Z" fill="white"/>
<path d="M43.62 26V22.992L53.796 10.96L54.66 12.624H43.844V8.78398H58.692V11.792L48.516 23.824L47.62 22.16H58.98V26H43.62Z" fill="white"/>
<path d="M66.307 22.48L66.435 16.4L74.467 8.78398H80.419L72.707 16.624L70.115 18.736L66.307 22.48ZM62.179 26V2.25598H67.171V26H62.179ZM75.011 26L69.187 18.768L72.323 14.896L81.059 26H75.011Z" fill="white"/>
<path d="M103.439 26.384C101.711 26.384 100.1 26.1066 98.6065 25.552C97.1345 24.976 95.8545 24.1653 94.7665 23.12C93.6785 22.0746 92.8252 20.848 92.2065 19.44C91.6092 18.032 91.3105 16.4853 91.3105 14.8C91.3105 13.1146 91.6092 11.568 92.2065 10.16C92.8252 8.75198 93.6785 7.52531 94.7665 6.47998C95.8758 5.43465 97.1665 4.63465 98.6385 4.07998C100.111 3.50398 101.721 3.21598 103.471 3.21598C105.412 3.21598 107.161 3.55731 108.719 4.23998C110.297 4.90131 111.62 5.88265 112.687 7.18398L109.359 10.256C108.591 9.38131 107.737 8.73065 106.799 8.30398C105.86 7.85598 104.836 7.63198 103.727 7.63198C102.681 7.63198 101.721 7.80265 100.847 8.14398C99.9718 8.48531 99.2145 8.97598 98.5745 9.61598C97.9345 10.256 97.4332 11.0133 97.0705 11.888C96.7292 12.7626 96.5585 13.7333 96.5585 14.8C96.5585 15.8666 96.7292 16.8373 97.0705 17.712C97.4332 18.5866 97.9345 19.344 98.5745 19.984C99.2145 20.624 99.9718 21.1146 100.847 21.456C101.721 21.7973 102.681 21.968 103.727 21.968C104.836 21.968 105.86 21.7546 106.799 21.328C107.737 20.88 108.591 20.208 109.359 19.312L112.687 22.384C111.62 23.6853 110.297 24.6773 108.719 25.36C107.161 26.0426 105.401 26.384 103.439 26.384Z" fill="white"/>
<path d="M123.434 26.256C121.599 26.256 119.967 25.872 118.538 25.104C117.13 24.336 116.01 23.2906 115.178 21.968C114.367 20.624 113.962 19.0986 113.962 17.392C113.962 15.664 114.367 14.1386 115.178 12.816C116.01 11.472 117.13 10.4266 118.538 9.67998C119.967 8.91198 121.599 8.52798 123.434 8.52798C125.247 8.52798 126.868 8.91198 128.298 9.67998C129.727 10.4266 130.847 11.4613 131.658 12.784C132.468 14.1066 132.874 15.6426 132.874 17.392C132.874 19.0986 132.468 20.624 131.658 21.968C130.847 23.2906 129.727 24.336 128.298 25.104C126.868 25.872 125.247 26.256 123.434 26.256ZM123.434 22.16C124.266 22.16 125.012 21.968 125.674 21.584C126.335 21.2 126.858 20.656 127.242 19.952C127.626 19.2266 127.818 18.3733 127.818 17.392C127.818 16.3893 127.626 15.536 127.242 14.832C126.858 14.128 126.335 13.584 125.674 13.2C125.012 12.816 124.266 12.624 123.434 12.624C122.602 12.624 121.855 12.816 121.194 13.2C120.532 13.584 119.999 14.128 119.594 14.832C119.21 15.536 119.018 16.3893 119.018 17.392C119.018 18.3733 119.21 19.2266 119.594 19.952C119.999 20.656 120.532 21.2 121.194 21.584C121.855 21.968 122.602 22.16 123.434 22.16Z" fill="white"/>
<path d="M146.674 8.52798C148.04 8.52798 149.256 8.80531 150.322 9.35998C151.41 9.89331 152.264 10.7253 152.882 11.856C153.501 12.9653 153.81 14.3946 153.81 16.144V26H148.818V16.912C148.818 15.5253 148.509 14.5013 147.89 13.84C147.293 13.1786 146.44 12.848 145.33 12.848C144.541 12.848 143.826 13.0186 143.186 13.36C142.568 13.68 142.077 14.1813 141.714 14.864C141.373 15.5466 141.202 16.4213 141.202 17.488V26H136.21V8.78398H140.978V13.552L140.082 12.112C140.701 10.96 141.586 10.0746 142.738 9.45598C143.89 8.83731 145.202 8.52798 146.674 8.52798Z" fill="white"/>
<path d="M158.943 26V8.39998C158.943 6.45865 159.519 4.91198 160.671 3.75998C161.823 2.58665 163.466 1.99998 165.599 1.99998C166.325 1.99998 167.018 2.07465 167.679 2.22398C168.362 2.37331 168.938 2.60798 169.407 2.92798L168.095 6.54398C167.818 6.35198 167.509 6.20265 167.167 6.09598C166.826 5.98931 166.463 5.93598 166.079 5.93598C165.354 5.93598 164.789 6.14931 164.383 6.57598C163.999 6.98131 163.807 7.59998 163.807 8.43198V10.032L163.935 12.176V26H158.943ZM156.287 13.008V9.16798H168.223V13.008H156.287Z" fill="white"/>
<path d="M179.036 26.256C177.073 26.256 175.345 25.872 173.852 25.104C172.38 24.336 171.238 23.2906 170.428 21.968C169.617 20.624 169.212 19.0986 169.212 17.392C169.212 15.664 169.606 14.1386 170.396 12.816C171.206 11.472 172.305 10.4266 173.692 9.67998C175.078 8.91198 176.646 8.52798 178.396 8.52798C180.081 8.52798 181.596 8.89065 182.94 9.61598C184.305 10.32 185.382 11.344 186.172 12.688C186.961 14.0106 187.355 15.6 187.355 17.456C187.355 17.648 187.345 17.872 187.324 18.128C187.302 18.3626 187.281 18.5866 187.26 18.8H173.276V15.888H184.635L182.715 16.752C182.715 15.856 182.534 15.0773 182.172 14.416C181.809 13.7546 181.308 13.2426 180.668 12.88C180.028 12.496 179.281 12.304 178.428 12.304C177.574 12.304 176.817 12.496 176.156 12.88C175.516 13.2426 175.014 13.7653 174.652 14.448C174.289 15.1093 174.108 15.8986 174.108 16.816V17.584C174.108 18.5226 174.31 19.3546 174.715 20.08C175.142 20.784 175.729 21.328 176.476 21.712C177.244 22.0746 178.14 22.256 179.164 22.256C180.081 22.256 180.881 22.1173 181.564 21.84C182.268 21.5626 182.908 21.1466 183.484 20.592L186.14 23.472C185.35 24.368 184.358 25.0613 183.164 25.552C181.969 26.0213 180.593 26.256 179.036 26.256Z" fill="white"/>
<path d="M190.679 26V8.78398H195.671V26H190.679ZM193.175 6.38398C192.258 6.38398 191.511 6.11731 190.935 5.58398C190.359 5.05065 190.071 4.38931 190.071 3.59998C190.071 2.81065 190.359 2.14931 190.935 1.61598C191.511 1.08265 192.258 0.815979 193.175 0.815979C194.092 0.815979 194.839 1.07198 195.415 1.58398C195.991 2.07465 196.279 2.71465 196.279 3.50398C196.279 4.33598 195.991 5.02931 195.415 5.58398C194.86 6.11731 194.114 6.38398 193.175 6.38398Z" fill="white"/>
<path d="M207.344 26.256C205.317 26.256 203.739 25.744 202.608 24.72C201.477 23.6746 200.912 22.128 200.912 20.08V4.97598H205.904V20.016C205.904 20.7413 206.096 21.3066 206.48 21.712C206.864 22.096 207.387 22.288 208.048 22.288C208.837 22.288 209.509 22.0746 210.064 21.648L211.408 25.168C210.896 25.5306 210.277 25.808 209.552 26C208.848 26.1706 208.112 26.256 207.344 26.256ZM198.256 13.008V9.16798H210.192V13.008H198.256Z" fill="white"/>
<path d="M224.77 26V22.64L224.45 21.904V15.888C224.45 14.8213 224.12 13.9893 223.458 13.392C222.818 12.7946 221.826 12.496 220.482 12.496C219.565 12.496 218.658 12.6453 217.762 12.944C216.888 13.2213 216.141 13.6053 215.522 14.096L213.73 10.608C214.669 9.94665 215.8 9.43465 217.122 9.07198C218.445 8.70931 219.789 8.52798 221.154 8.52798C223.778 8.52798 225.816 9.14665 227.266 10.384C228.717 11.6213 229.442 13.552 229.442 16.176V26H224.77ZM219.522 26.256C218.178 26.256 217.026 26.032 216.066 25.584C215.106 25.1146 214.37 24.4853 213.858 23.696C213.346 22.9066 213.09 22.0213 213.09 21.04C213.09 20.016 213.336 19.12 213.826 18.352C214.338 17.584 215.138 16.9866 216.226 16.56C217.314 16.112 218.733 15.888 220.482 15.888H225.058V18.8H221.026C219.853 18.8 219.042 18.992 218.594 19.376C218.168 19.76 217.954 20.24 217.954 20.816C217.954 21.456 218.2 21.968 218.69 22.352C219.202 22.7146 219.896 22.896 220.77 22.896C221.602 22.896 222.349 22.704 223.01 22.32C223.672 21.9146 224.152 21.328 224.45 20.56L225.218 22.864C224.856 23.9733 224.194 24.816 223.234 25.392C222.274 25.968 221.037 26.256 219.522 26.256Z" fill="white"/>
<path d="M233.96 26V8.78398H238.728V13.648L238.056 12.24C238.568 11.024 239.39 10.1066 240.52 9.48798C241.651 8.84798 243.027 8.52798 244.648 8.52798V13.136C244.435 13.1146 244.243 13.104 244.072 13.104C243.902 13.0826 243.72 13.072 243.528 13.072C242.163 13.072 241.054 13.4666 240.2 14.256C239.368 15.024 238.952 16.2293 238.952 17.872V26H233.96Z" fill="white"/>
<path d="M247.648 26V8.78398H252.64V26H247.648ZM250.144 6.38398C249.226 6.38398 248.48 6.11731 247.904 5.58398C247.328 5.05065 247.04 4.38931 247.04 3.59998C247.04 2.81065 247.328 2.14931 247.904 1.61598C248.48 1.08265 249.226 0.815979 250.144 0.815979C251.061 0.815979 251.808 1.07198 252.384 1.58398C252.96 2.07465 253.248 2.71465 253.248 3.50398C253.248 4.33598 252.96 5.02931 252.384 5.58398C251.829 6.11731 251.082 6.38398 250.144 6.38398Z" fill="white"/>
<path d="M267.833 26V22.64L267.513 21.904V15.888C267.513 14.8213 267.182 13.9893 266.521 13.392C265.881 12.7946 264.889 12.496 263.545 12.496C262.627 12.496 261.721 12.6453 260.825 12.944C259.95 13.2213 259.203 13.6053 258.585 14.096L256.793 10.608C257.731 9.94665 258.862 9.43465 260.185 9.07198C261.507 8.70931 262.851 8.52798 264.217 8.52798C266.841 8.52798 268.878 9.14665 270.329 10.384C271.779 11.6213 272.505 13.552 272.505 16.176V26H267.833ZM262.585 26.256C261.241 26.256 260.089 26.032 259.129 25.584C258.169 25.1146 257.433 24.4853 256.921 23.696C256.409 22.9066 256.153 22.0213 256.153 21.04C256.153 20.016 256.398 19.12 256.889 18.352C257.401 17.584 258.201 16.9866 259.289 16.56C260.377 16.112 261.795 15.888 263.545 15.888H268.121V18.8H264.089C262.915 18.8 262.105 18.992 261.657 19.376C261.23 19.76 261.017 20.24 261.017 20.816C261.017 21.456 261.262 21.968 261.753 22.352C262.265 22.7146 262.958 22.896 263.833 22.896C264.665 22.896 265.411 22.704 266.073 22.32C266.734 21.9146 267.214 21.328 267.513 20.56L268.281 22.864C267.918 23.9733 267.257 24.816 266.297 25.392C265.337 25.968 264.099 26.256 262.585 26.256Z" fill="white"/>
</svg>
